<svg id="Layer_1" data-name="Layer 1" xmlns="http://www.w3.org/2000/svg" viewBox="0 0 736.43 187.07"><defs><style>.cls-1{fill:#1b9cd8;}.cls-2{fill:#4bc5dd;}.cls-3{fill:#231f20;}.cls-4{fill:#c42026;}.cls-5{fill:#010101;}.cls-6{fill:#fff;}.cls-7{fill:#ef3837;}</style></defs><polygon class="cls-1" points="142.68 61.41 82.72 96.64 19.32 61.91 79.28 26.69 142.68 61.41"/><polygon class="cls-2" points="82.72 105.37 39.55 81.73 19.32 93.61 82.72 128.33 142.68 93.11 122.45 82.03 82.72 105.37"/><polygon class="cls-1" points="82.72 137.41 39.55 113.77 19.32 125.65 82.72 160.37 142.68 125.15 122.45 114.08 82.72 137.41"/><polygon class="cls-2" points="0 51 0 136.57 6.37 132.87 6.37 54.7 0 51"/><polygon class="cls-1" points="155.64 53.78 155.64 133.79 162 137.49 162 50.08 155.64 53.78"/><polygon class="cls-1" points="151.39 139.07 81 179.71 9.81 138.62 3.47 142.31 81 187.07 157.74 142.76 151.39 139.07"/><polygon class="cls-2" points="9.38 48.7 81 7.35 151.83 48.24 158.17 44.55 81 0 3.04 45.01 9.38 48.7"/><path class="cls-3" d="M258.61,183.44l-7.42-.62a3.29,3.29,0,0,1-2.36-.91,4.69,4.69,0,0,1-.61-2.8c0-1.65.31-2.75.94-3.3s2.15-.83,4.58-.83a37.56,37.56,0,0,1,4.79.2,3.15,3.15,0,0,1,1.75.69,2,2,0,0,1,.48,1,9.2,9.2,0,0,1,.16,2v.59h2.63c0-.13,0-.27,0-.44s0-.39,0-.7a9.35,9.35,0,0,0-.32-2.63,3.39,3.39,0,0,0-1-1.62,5.71,5.71,0,0,0-2.48-1.21,25.77,25.77,0,0,0-5.12-.35h-.84a26.85,26.85,0,0,0-4.54.26,4.27,4.27,0,0,0-2,.9,4.59,4.59,0,0,0-1.33,2.08,10.66,10.66,0,0,0-.42,3.31q0,3.27,1.26,4.65t4.52,1.64l7.28.57a2.86,2.86,0,0,1,2.1.8c.36.45.54,1.55.54,3.31a11.06,11.06,0,0,1-.15,2.06,2.1,2.1,0,0,1-.44,1.08A3.15,3.15,0,0,1,259,194a14.69,14.69,0,0,1-3.13.26c-2.47,0-4.11,0-4.9-.13a5,5,0,0,1-1.76-.45,2.35,2.35,0,0,1-1.05-1.42,11.12,11.12,0,0,1-.32-3.11v-.44h-2.63v1.16a11,11,0,0,0,.42,3.3,4.45,4.45,0,0,0,1.31,2.06,5.07,5.07,0,0,0,2.26,1.16,22.24,22.24,0,0,0,4.63.33H255a23.78,23.78,0,0,0,5.29-.39,4.59,4.59,0,0,0,2.31-1.35,4.52,4.52,0,0,0,1-1.95,15,15,0,0,0,.3-3.48q0-3.18-1.17-4.53C261.93,184.14,260.56,183.61,258.61,183.44Z" transform="translate(-46 -42.6)"/><polygon class="cls-3" points="224.96 153.83 241.53 153.83 241.53 151.35 227.56 151.35 227.56 142.85 241.13 142.85 241.13 140.44 227.56 140.44 227.56 132.71 241.53 132.71 241.53 130.2 224.96 130.2 224.96 153.83"/><path class="cls-3" d="M304.34,172.81H293.68v23.62h2.6v-9.2h8.38c1.56,0,2.6.3,3.14.9a5.35,5.35,0,0,1,.8,3.43v4.87h2.73v-5.68a6.25,6.25,0,0,0-.68-3.3,3.71,3.71,0,0,0-2.37-1.44,3.35,3.35,0,0,0,2.29-1.33,4.86,4.86,0,0,0,.76-2.91V178.2c0-2-.5-3.42-1.5-4.21S307,172.81,304.34,172.81Zm4.26,8.61a3.19,3.19,0,0,1-.92,2.62c-.6.49-1.89.73-3.86.73h-7.54v-9.46h7.54q3,0,3.9.72a3.26,3.26,0,0,1,.88,2.63Z" transform="translate(-46 -42.6)"/><polygon class="cls-3" points="279.86 151.39 272.32 130.2 269.53 130.2 278.18 153.83 281.56 153.83 290.21 130.2 287.43 130.2 279.86 151.39"/><polygon class="cls-3" points="295.43 153.83 312 153.83 312 151.35 298.03 151.35 298.03 142.85 311.6 142.85 311.6 140.44 298.03 140.44 298.03 132.71 312 132.71 312 130.2 295.43 130.2 295.43 153.83"/><path class="cls-3" d="M374.81,172.81H364.15v23.62h2.6v-9.2h8.38c1.56,0,2.6.3,3.13.9s.8,1.74.8,3.43v4.87h2.74v-5.68a6.15,6.15,0,0,0-.69-3.3,3.66,3.66,0,0,0-2.36-1.44,3.38,3.38,0,0,0,2.29-1.33,4.93,4.93,0,0,0,.76-2.91V178.2c0-2-.5-3.42-1.5-4.21S377.47,172.81,374.81,172.81Zm4.25,8.61a3.19,3.19,0,0,1-.91,2.62c-.61.49-1.89.73-3.86.73h-7.54v-9.46h7.54q3,0,3.9.72a3.26,3.26,0,0,1,.87,2.63Z" transform="translate(-46 -42.6)"/><polygon class="cls-3" points="368.15 151.26 360.06 130.2 355.76 130.2 355.76 153.83 358.36 153.83 358.36 132.41 366.51 153.83 369.74 153.83 377.89 132.41 377.89 153.83 380.5 153.83 380.5 130.2 376.16 130.2 368.15 151.26"/><path class="cls-3" d="M444.91,172.52h-3q-4.77,0-6.65,1.79t-1.87,6.3v8c0,3,.62,5.13,1.87,6.31s3.47,1.78,6.65,1.78h3c3.18,0,5.39-.59,6.65-1.78s1.88-3.29,1.88-6.31v-8q0-4.56-1.85-6.33T444.91,172.52Zm5.8,15.47a15.34,15.34,0,0,1-.28,3.53,3.22,3.22,0,0,1-1,1.57,4.52,4.52,0,0,1-1.79.9,16,16,0,0,1-3.54.27h-1.46a15.86,15.86,0,0,1-3.53-.27,4.43,4.43,0,0,1-1.77-.9,3.25,3.25,0,0,1-1-1.61,14.72,14.72,0,0,1-.28-3.49V181.3a14.91,14.91,0,0,1,.28-3.52,3.19,3.19,0,0,1,1-1.62,4.33,4.33,0,0,1,1.77-.91,15.86,15.86,0,0,1,3.53-.27h1.46a16.73,16.73,0,0,1,3.54.26,4.49,4.49,0,0,1,1.76.88,3.28,3.28,0,0,1,1,1.63,14.72,14.72,0,0,1,.29,3.51Z" transform="translate(-46 -42.6)"/><polygon class="cls-3" points="431.16 151.29 418.35 130.2 414.32 130.2 414.32 153.83 416.93 153.83 416.93 132.71 429.73 153.83 433.76 153.83 433.76 130.2 431.16 130.2 431.16 151.29"/><rect class="cls-3" x="441.46" y="130.2" width="2.63" height="23.63"/><polygon class="cls-3" points="448.53 132.71 456.05 132.71 456.05 153.83 458.67 153.83 458.67 132.71 466.23 132.71 466.23 130.2 448.53 130.2 448.53 132.71"/><path class="cls-3" d="M527.42,172.52h-3q-4.77,0-6.65,1.79t-1.87,6.3v8c0,3,.62,5.13,1.87,6.31s3.47,1.78,6.65,1.78h3c3.18,0,5.39-.59,6.65-1.78s1.88-3.29,1.88-6.31v-8q0-4.56-1.85-6.33T527.42,172.52Zm5.8,15.47a15.34,15.34,0,0,1-.28,3.53,3.22,3.22,0,0,1-1,1.57,4.52,4.52,0,0,1-1.79.9,16,16,0,0,1-3.54.27h-1.46a15.7,15.7,0,0,1-3.52-.27,4.41,4.41,0,0,1-1.78-.9,3.25,3.25,0,0,1-1-1.61,14.72,14.72,0,0,1-.28-3.49V181.3a14.91,14.91,0,0,1,.28-3.52,3.19,3.19,0,0,1,1-1.62,4.3,4.3,0,0,1,1.78-.91,15.7,15.7,0,0,1,3.52-.27h1.46a16.73,16.73,0,0,1,3.54.26,4.49,4.49,0,0,1,1.76.88,3.28,3.28,0,0,1,1,1.63,14.72,14.72,0,0,1,.29,3.51Z" transform="translate(-46 -42.6)"/><path class="cls-3" d="M553.5,172.81H542.83v23.62h2.61v-9.2h8.37c1.56,0,2.6.3,3.14.9a5.35,5.35,0,0,1,.8,3.43v4.87h2.73v-5.68a6.25,6.25,0,0,0-.68-3.3,3.71,3.71,0,0,0-2.37-1.44,3.35,3.35,0,0,0,2.29-1.33,4.86,4.86,0,0,0,.76-2.91V178.2c0-2-.5-3.42-1.5-4.21S556.15,172.81,553.5,172.81Zm4.25,8.61a3.22,3.22,0,0,1-.91,2.62c-.61.49-1.9.73-3.87.73h-7.53v-9.46H553q3,0,3.9.72a3.22,3.22,0,0,1,.88,2.63Z" transform="translate(-46 -42.6)"/><rect class="cls-3" x="521.51" y="130.2" width="2.63" height="23.63"/><polygon class="cls-3" points="548.64 151.29 535.84 130.2 531.8 130.2 531.8 153.83 534.41 153.83 534.41 132.71 547.21 153.83 551.24 153.83 551.24 130.2 548.64 130.2 548.64 151.29"/><path class="cls-3" d="M622,174c-1.38-1-3.52-1.48-6.43-1.48h-3q-4.77,0-6.63,1.79t-1.88,6.3v8c0,3,.63,5.13,1.88,6.31s3.45,1.78,6.63,1.78h3q4.76,0,6.63-1.78c1.25-1.18,1.87-3.29,1.87-6.31v-3.95h-9.25v2.39h6.56v1.46a13.17,13.17,0,0,1-.27,3.21,2.89,2.89,0,0,1-.89,1.47,4.12,4.12,0,0,1-1.62.81,14.61,14.61,0,0,1-3.19.24H613.3a15.76,15.76,0,0,1-3.52-.27,4.48,4.48,0,0,1-1.78-.9,3.08,3.08,0,0,1-1-1.57,14.78,14.78,0,0,1-.28-3.53v-6.73a14.67,14.67,0,0,1,.28-3.53,3,3,0,0,1,1-1.57,4.36,4.36,0,0,1,1.81-.91,15.81,15.81,0,0,1,3.49-.27h2.08c2.33,0,3.9.32,4.73,1a4.09,4.09,0,0,1,1.24,3.4v.29H624v-1A5.32,5.32,0,0,0,622,174Z" transform="translate(-46 -42.6)"/><path class="cls-3" d="M656.44,183.44l-7.42-.62a3.29,3.29,0,0,1-2.36-.91,4.69,4.69,0,0,1-.61-2.8c0-1.65.31-2.75.94-3.3s2.15-.83,4.58-.83a37.67,37.67,0,0,1,4.79.2,3.15,3.15,0,0,1,1.75.69,2,2,0,0,1,.48,1,10,10,0,0,1,.15,2v.59h2.64c0-.13,0-.27,0-.44s0-.39,0-.7a9,9,0,0,0-.33-2.63,3.3,3.3,0,0,0-1-1.62,5.7,5.7,0,0,0-2.49-1.21,25.65,25.65,0,0,0-5.11-.35h-.85a26.8,26.8,0,0,0-4.53.26,4.27,4.27,0,0,0-2,.9,4.69,4.69,0,0,0-1.34,2.08,11,11,0,0,0-.41,3.31c0,2.18.42,3.73,1.25,4.65s2.35,1.47,4.53,1.64l7.28.57a2.86,2.86,0,0,1,2.1.8c.36.45.54,1.55.54,3.31a11.06,11.06,0,0,1-.15,2.06,2.1,2.1,0,0,1-.44,1.08,3.15,3.15,0,0,1-1.65.85,14.69,14.69,0,0,1-3.13.26c-2.47,0-4.11,0-4.9-.13a4.92,4.92,0,0,1-1.76-.45,2.35,2.35,0,0,1-1-1.42,11.12,11.12,0,0,1-.32-3.11v-.44H643v1.16a11,11,0,0,0,.42,3.3,4.45,4.45,0,0,0,1.31,2.06,5,5,0,0,0,2.26,1.16,22.19,22.19,0,0,0,4.62.33h1.18a23.78,23.78,0,0,0,5.29-.39,4.59,4.59,0,0,0,2.31-1.35,4.52,4.52,0,0,0,1-1.95,15,15,0,0,0,.3-3.48q0-3.18-1.17-4.53A5.92,5.92,0,0,0,656.44,183.44Z" transform="translate(-46 -42.6)"/><polygon class="cls-3" points="629.58 141.22 621.61 130.2 618.54 130.2 628.31 143.37 628.31 153.83 630.88 153.83 630.88 143.33 640.64 130.2 637.55 130.2 629.58 141.22"/><path class="cls-3" d="M702.86,183.44l-7.43-.62a3.29,3.29,0,0,1-2.36-.91,4.76,4.76,0,0,1-.61-2.8c0-1.65.31-2.75.94-3.3s2.15-.83,4.58-.83a37.56,37.56,0,0,1,4.79.2,3.15,3.15,0,0,1,1.75.69,2.11,2.11,0,0,1,.49,1,10,10,0,0,1,.15,2v.59h2.63c0-.13,0-.27,0-.44s0-.39,0-.7a9.35,9.35,0,0,0-.32-2.63,3.39,3.39,0,0,0-1-1.62,5.66,5.66,0,0,0-2.48-1.21,25.77,25.77,0,0,0-5.12-.35h-.84a26.94,26.94,0,0,0-4.54.26,4.27,4.27,0,0,0-2,.9,4.67,4.67,0,0,0-1.33,2.08,10.66,10.66,0,0,0-.42,3.31q0,3.27,1.26,4.65t4.52,1.64l7.28.57a2.91,2.91,0,0,1,2.11.8c.35.45.53,1.55.53,3.31a12.18,12.18,0,0,1-.14,2.06,2.19,2.19,0,0,1-.45,1.08,3.15,3.15,0,0,1-1.65.85,14.69,14.69,0,0,1-3.13.26c-2.47,0-4.11,0-4.9-.13a5,5,0,0,1-1.76-.45,2.35,2.35,0,0,1-1-1.42,11.12,11.12,0,0,1-.32-3.11v-.44h-2.63v1.16a11,11,0,0,0,.42,3.3,4.45,4.45,0,0,0,1.31,2.06,5.07,5.07,0,0,0,2.26,1.16,22.3,22.3,0,0,0,4.63.33h1.17a23.72,23.72,0,0,0,5.29-.39,4.59,4.59,0,0,0,2.31-1.35,4.52,4.52,0,0,0,1-1.95,15,15,0,0,0,.3-3.48q0-3.18-1.17-4.53A5.89,5.89,0,0,0,702.86,183.44Z" transform="translate(-46 -42.6)"/><polygon class="cls-3" points="665.98 132.71 673.5 132.71 673.5 153.83 676.12 153.83 676.12 132.71 683.67 132.71 683.67 130.2 665.98 130.2 665.98 132.71"/><polygon class="cls-3" points="688.11 153.83 704.68 153.83 704.68 151.35 690.72 151.35 690.72 142.85 704.28 142.85 704.28 140.44 690.72 140.44 690.72 132.71 704.68 132.71 704.68 130.2 688.11 130.2 688.11 153.83"/><polygon class="cls-3" points="723.23 151.26 715.14 130.2 710.84 130.2 710.84 153.83 713.44 153.83 713.44 132.41 721.6 153.83 724.82 153.83 732.97 132.41 732.97 153.83 735.58 153.83 735.58 130.2 731.24 130.2 723.23 151.26"/><polygon class="cls-1" points="363.05 103.45 369.94 103.45 369.94 40.88 358.47 40.88 337.25 96.64 315.81 40.88 304.42 40.88 304.42 103.45 311.32 103.45 311.32 46.72 332.92 103.45 341.45 103.45 363.05 46.72 363.05 103.45"/><path class="cls-1" d="M445.87,101.21H442.8q-9.89,0-13.81,3.87t-3.93,13.62v10.5q0,9.7,3.95,13.58t13.87,3.86H446q9.87,0,13.8-3.84t3.93-13.6V118.7q0-9.75-3.95-13.62T445.87,101.21Zm11.05,26.52c0,5.58-.72,9.13-2.15,10.68s-4.39,2.31-8.9,2.31H442.8q-6.74,0-8.83-2.27t-2.1-10.72v-7.56c0-5.61.69-9.16,2.08-10.68s4.34-2.27,8.85-2.27h3.07c4.53,0,7.51.77,8.93,2.29s2.12,5.08,2.12,10.66Z" transform="translate(-46 -42.6)"/><path class="cls-1" d="M478.56,120.33q0-6.84,3.22-10t10.15-3.17q5.88,0,7.92,2.18t2,9.12v27.61h6.55v-29q0-8.84-3.48-12.34t-12.19-3.51a22.58,22.58,0,0,0-9.33,1.62,10.16,10.16,0,0,0-5.13,5v-6h-6.26v44.25h6.51Z" transform="translate(-46 -42.6)"/><rect class="cls-1" x="472.2" y="59.2" width="6.51" height="44.25"/><rect class="cls-1" x="472.2" y="40.88" width="6.51" height="7.4"/><path class="cls-1" d="M558.71,131.77c0,3.55-.55,5.94-1.66,7.14s-3.24,1.81-6.41,1.81-5.35-.63-6.49-1.87-1.7-3.61-1.7-7.08V107.39h21.68V101.8H542.45v-10h-6.56v10h-5.42v5.59h5.42v23.45q0,9,3,12.38t10.57,3.42q9.74,0,12.83-3.23t3.09-12.57v-.38h-6.64Z" transform="translate(-46 -42.6)"/><path class="cls-1" d="M593,146.64q9.87,0,13.8-3.84t3.93-13.6V118.7q0-9.75-4-13.62t-13.87-3.87h-3.07q-9.87,0-13.8,3.87t-3.93,13.62v10.5q0,9.7,3.95,13.58t13.87,3.86Zm-12-8.19q-2.1-2.26-2.1-10.72v-7.56c0-5.61.69-9.16,2.08-10.68s4.33-2.27,8.84-2.27h3.07c4.54,0,7.52.77,8.93,2.29s2.12,5.08,2.12,10.66v7.56c0,5.58-.71,9.13-2.14,10.68s-4.4,2.31-8.91,2.31h-3.07Q583.09,140.72,581,138.45Z" transform="translate(-46 -42.6)"/><path class="cls-1" d="M650.54,117.39v-.33q0-8.86-2.92-12.36t-10.15-3.49a16.42,16.42,0,0,0-7.81,1.6,9.58,9.58,0,0,0-4.33,5v-6H619v44.25h6.6V120.33q0-7,2.44-10.1c1.62-2.06,4.26-3.09,7.9-3.09,3.11,0,5.22.61,6.35,1.83s1.68,3.59,1.68,7.12v1.3Z" transform="translate(-46 -42.6)"/><path class="cls-2" d="M697.55,118.61q3.93-3.15,3.93-11.39V97.77q0-8-4-11.16T683,83.48H656.64v62.57h6.89V121.76H683Q693.63,121.76,697.55,118.61Zm-34-3.44v-25h19.38c4.73,0,7.81.56,9.22,1.68S694.25,95,694.25,98v9.2q0,4.5-2.18,6.22t-9.16,1.73Z" transform="translate(-46 -42.6)"/><path class="cls-2" d="M740.27,117.39v-.33q0-8.86-2.92-12.36t-10.15-3.49a16.42,16.42,0,0,0-7.81,1.6,9.54,9.54,0,0,0-4.33,5v-6h-6.35v44.25h6.6V120.33q0-7,2.44-10.1c1.62-2.06,4.26-3.09,7.9-3.09q4.67,0,6.34,1.83t1.68,7.12v1.3Z" transform="translate(-46 -42.6)"/><path class="cls-2" d="M778.48,105.08q-4-3.87-13.87-3.87h-3.07q-9.87,0-13.8,3.87t-3.93,13.62v10.5q0,9.7,4,13.58t13.87,3.86h3.06q9.88,0,13.81-3.84t3.93-13.6V118.7Q782.43,109,778.48,105.08Zm-2.82,22.65c0,5.58-.71,9.13-2.14,10.68s-4.4,2.31-8.91,2.31h-3.07q-6.72,0-8.82-2.27t-2.11-10.72v-7.56c0-5.61.7-9.16,2.08-10.68s4.34-2.27,8.85-2.27h3.07c4.54,0,7.51.77,8.93,2.29s2.12,5.08,2.12,10.66Z" transform="translate(-46 -42.6)"/><path class="cls-4" d="M311.63,126.88c0-.24.07-.39.32-.37a4.63,4.63,0,0,0,.62.09c.39,0,.61.27.93.36a.79.79,0,0,1,.28.18,7.94,7.94,0,0,1,1.72,2,17.93,17.93,0,0,1,.93,2,.3.3,0,0,1-.23.42l-1.23.08a4,4,0,0,0-.77-.12,5.35,5.35,0,0,1-1.82-.3.79.79,0,0,1-.39-.3,5.63,5.63,0,0,1-.34-.89,2.87,2.87,0,0,1-.21-.8c0-.3.1-.61.12-.91C311.6,127.85,311.63,127.37,311.63,126.88Z" transform="translate(-46 -42.6)"/><path class="cls-5" d="M310.39,114.69a1,1,0,0,0,.67.86,2.46,2.46,0,0,0,1.75-.1.83.83,0,0,1,.93.21,16.13,16.13,0,0,0,1.5,1.11,5.13,5.13,0,0,0,.91.45,4,4,0,0,0,1.84.22,3.24,3.24,0,0,0,1-.27c.45-.21.87-.48,1.3-.72l0-.12a2.13,2.13,0,0,0-.59.14,2.55,2.55,0,0,1-1.3.21,1.84,1.84,0,0,1-1.5-.62c-.4-.4-.74-.86-1.15-1.26a5.7,5.7,0,0,0-1.94-1.35,3,3,0,0,0-1.94-.27,1.58,1.58,0,0,0-1.21.93C310.54,114.3,310.38,114.45,310.39,114.69Z" transform="translate(-46 -42.6)"/><path class="cls-4" d="M282.67,102.18v8.12h-.8a12.62,12.62,0,0,0-1.57-4,5.92,5.92,0,0,0-2.36-2,7.47,7.47,0,0,0-2.94-.4h-2.23V127a9.45,9.45,0,0,0,.25,2.87,2.3,2.3,0,0,0,1,1,4.07,4.07,0,0,0,2,.43h1v.82H261.34v-.82h1a4.13,4.13,0,0,0,2.1-.47,2.06,2.06,0,0,0,.91-1.06,9.18,9.18,0,0,0,.24-2.78V103.91h-2.16a6.32,6.32,0,0,0-4.4,1.28,8.5,8.5,0,0,0-2.43,5.11h-.84v-8.12Z" transform="translate(-46 -42.6)"/><path class="cls-4" d="M327.34,116.7c-1.9-.47-3-2.16-4.68-3.1a4.19,4.19,0,0,0-2.42-.47c-.56,0-.55,0-.75-.52a22.55,22.55,0,0,0-6.46-9.45c-.19-.16-.38-.32-.59-.47-.51-.36-1-.73-1.54-1a16.87,16.87,0,0,0-7.2-2.18c-1.79-.17-4.61-.51-5.95,1a8.22,8.22,0,0,0-1.05,1.43,8.25,8.25,0,0,1-3.89,3.47c-1.12.51-2.31.86-3.48,1.27-.41.15-.82.33-1.23.49v14.53c.93-.7,1.67-1.89,2.86-2.13a4.16,4.16,0,0,1,1.72.08,19.7,19.7,0,0,1,5.55,2.66,21.36,21.36,0,0,0,3,1.56,9.28,9.28,0,0,0,2.16.49c.64.08,1.2,0,1.67.54a4.58,4.58,0,0,1,1.17,2.44,9,9,0,0,1-.25,2.64,1.53,1.53,0,0,0,.1.5c0,.21.09.41.13.61a1.05,1.05,0,0,0,.82.8,7.82,7.82,0,0,0,2.82.55,5.64,5.64,0,0,0,.92-.11c.93-.19-1.58-4.77-1.73-5.3a2.75,2.75,0,0,1,.17-2.2,3.28,3.28,0,0,1,2-1.23c.14,0,.29-.05.42-.09a.46.46,0,0,1,.54.31,3.68,3.68,0,0,0,.85,1.37,3.84,3.84,0,0,0,1.92.63c.44.11.66-.17.8-.5a14.76,14.76,0,0,1,2.62-3.71,9.78,9.78,0,0,0,1.9-2.45,4.23,4.23,0,0,0,.1-1.5,7.55,7.55,0,0,0-.05-.83c0-.29-.12-.57-.18-.86a.24.24,0,0,1,.25-.33,9.56,9.56,0,0,1,1.31,0,1.92,1.92,0,0,1,.73.25c.9.49,1.73,1.06,2.63,1.55a4.3,4.3,0,0,0,2.95.4,6.54,6.54,0,0,0,3-1.52A5.74,5.74,0,0,1,327.34,116.7Z" transform="translate(-46 -42.6)"/><path class="cls-5" d="M309.55,115.23a1,1,0,0,0,.67.87A2.46,2.46,0,0,0,312,116a.87.87,0,0,1,.94.22c.47.39,1,.76,1.49,1.11a5.88,5.88,0,0,0,.91.44,3.76,3.76,0,0,0,1.85.22,3,3,0,0,0,1-.27,13.79,13.79,0,0,0,1.3-.72l0-.11a1.82,1.82,0,0,0-.59.14,2.65,2.65,0,0,1-1.3.21,1.88,1.88,0,0,1-1.5-.63c-.4-.4-.74-.85-1.14-1.25a6,6,0,0,0-1.95-1.36,3,3,0,0,0-1.94-.26,1.54,1.54,0,0,0-1.21.93C309.7,114.85,309.54,115,309.55,115.23Z" transform="translate(-46 -42.6)"/><path class="cls-4" d="M299.61,123.86a15.84,15.84,0,0,1-1.46,3.12,7.4,7.4,0,0,1-2.75,2.66,8.47,8.47,0,0,1-4,.84h-2.5a10.62,10.62,0,0,1-2.67-.2,1.77,1.77,0,0,1-1-.94,9.65,9.65,0,0,1-.26-2.93v-19.1a9.18,9.18,0,0,1,.24-2.78,2.06,2.06,0,0,1,.91-1.06,4.12,4.12,0,0,1,2.09-.47h1.31v-.82h-16V103h1a4,4,0,0,1,2,.43,2.22,2.22,0,0,1,1,1,10,10,0,0,1,.24,2.87V127a9.18,9.18,0,0,1-.24,2.78,2,2,0,0,1-.89,1.06,4.13,4.13,0,0,1-2.1.47h-1v.82h26.61l.81-7.52C300.49,124.39,300,124.11,299.61,123.86Z" transform="translate(-46 -42.6)"/><path class="cls-6" d="M296.9,123.44c-.21.72,5.79,3.48,6.23,2.8.23-.35-1-1.66-2.19-2.34a5.35,5.35,0,0,0-2.57-.69C297.73,123.2,297,123.2,296.9,123.44Z" transform="translate(-46 -42.6)"/><path class="cls-4" d="M311.63,126.88c0-.24.07-.39.32-.37a4.63,4.63,0,0,0,.62.09c.39,0,.61.27.93.36a.79.79,0,0,1,.28.18,7.94,7.94,0,0,1,1.72,2,17.93,17.93,0,0,1,.93,2,.3.3,0,0,1-.23.42l-1.23.08a4,4,0,0,0-.77-.12,5.35,5.35,0,0,1-1.82-.3.79.79,0,0,1-.39-.3,5.63,5.63,0,0,1-.34-.89,2.87,2.87,0,0,1-.21-.8c0-.3.1-.61.12-.91C311.6,127.85,311.63,127.37,311.63,126.88Z" transform="translate(-46 -42.6)"/><path class="cls-5" d="M310.39,114.69a1,1,0,0,0,.67.86,2.46,2.46,0,0,0,1.75-.1.83.83,0,0,1,.93.21,16.13,16.13,0,0,0,1.5,1.11,5.13,5.13,0,0,0,.91.45,4,4,0,0,0,1.84.22,3.24,3.24,0,0,0,1-.27c.45-.21.87-.48,1.3-.72l0-.12a2.13,2.13,0,0,0-.59.14,2.55,2.55,0,0,1-1.3.21,1.84,1.84,0,0,1-1.5-.62c-.4-.4-.74-.86-1.15-1.26a5.7,5.7,0,0,0-1.94-1.35,3,3,0,0,0-1.94-.27,1.58,1.58,0,0,0-1.21.93C310.54,114.3,310.38,114.45,310.39,114.69Z" transform="translate(-46 -42.6)"/><path class="cls-4" d="M282.67,102.18v8.12h-.8a12.62,12.62,0,0,0-1.57-4,5.92,5.92,0,0,0-2.36-2,7.47,7.47,0,0,0-2.94-.4h-2.23V127a9.45,9.45,0,0,0,.25,2.87,2.3,2.3,0,0,0,1,1,4.07,4.07,0,0,0,2,.43h1v.82H261.34v-.82h1a4.13,4.13,0,0,0,2.1-.47,2.06,2.06,0,0,0,.91-1.06,9.18,9.18,0,0,0,.24-2.78V103.91h-2.16a6.32,6.32,0,0,0-4.4,1.28,8.5,8.5,0,0,0-2.43,5.11h-.84v-8.12Z" transform="translate(-46 -42.6)"/><path class="cls-4" d="M327.34,116.7c-1.9-.47-3-2.16-4.68-3.1a4.19,4.19,0,0,0-2.42-.47c-.56,0-.55,0-.75-.52a22.55,22.55,0,0,0-6.46-9.45c-.19-.16-.38-.32-.59-.47-.51-.36-1-.73-1.54-1a16.87,16.87,0,0,0-7.2-2.18c-1.79-.17-4.61-.51-5.95,1a8.22,8.22,0,0,0-1.05,1.43,8.25,8.25,0,0,1-3.89,3.47c-1.12.51-2.31.86-3.48,1.27-.41.15-.82.33-1.23.49v14.53c.93-.7,1.67-1.89,2.86-2.13a4.16,4.16,0,0,1,1.72.08,19.7,19.7,0,0,1,5.55,2.66,21.36,21.36,0,0,0,3,1.56,9.28,9.28,0,0,0,2.16.49c.64.08,1.2,0,1.67.54a4.58,4.58,0,0,1,1.17,2.44,9,9,0,0,1-.25,2.64,1.53,1.53,0,0,0,.1.5c0,.21.09.41.13.61a1.05,1.05,0,0,0,.82.8,7.82,7.82,0,0,0,2.82.55,5.64,5.64,0,0,0,.92-.11c.93-.19-1.58-4.77-1.73-5.3a2.75,2.75,0,0,1,.17-2.2,3.28,3.28,0,0,1,2-1.23c.14,0,.29-.05.42-.09a.46.46,0,0,1,.54.31,3.68,3.68,0,0,0,.85,1.37,3.84,3.84,0,0,0,1.92.63c.44.11.66-.17.8-.5a14.76,14.76,0,0,1,2.62-3.71,9.78,9.78,0,0,0,1.9-2.45,4.23,4.23,0,0,0,.1-1.5,7.55,7.55,0,0,0-.05-.83c0-.29-.12-.57-.18-.86a.24.24,0,0,1,.25-.33,9.56,9.56,0,0,1,1.31,0,1.92,1.92,0,0,1,.73.25c.9.49,1.73,1.06,2.63,1.55a4.3,4.3,0,0,0,2.95.4,6.54,6.54,0,0,0,3-1.52A5.74,5.74,0,0,1,327.34,116.7Z" transform="translate(-46 -42.6)"/><path class="cls-5" d="M309.55,115.23a1,1,0,0,0,.67.87A2.46,2.46,0,0,0,312,116a.87.87,0,0,1,.94.22c.47.39,1,.76,1.49,1.11a5.88,5.88,0,0,0,.91.44,3.76,3.76,0,0,0,1.85.22,3,3,0,0,0,1-.27,13.79,13.79,0,0,0,1.3-.72l0-.11a1.82,1.82,0,0,0-.59.14,2.65,2.65,0,0,1-1.3.21,1.88,1.88,0,0,1-1.5-.63c-.4-.4-.74-.85-1.14-1.25a6,6,0,0,0-1.95-1.36,3,3,0,0,0-1.94-.26,1.54,1.54,0,0,0-1.21.93C309.7,114.85,309.54,115,309.55,115.23Z" transform="translate(-46 -42.6)"/><path class="cls-4" d="M299.61,123.86a15.84,15.84,0,0,1-1.46,3.12,7.4,7.4,0,0,1-2.75,2.66,8.47,8.47,0,0,1-4,.84h-2.5a10.62,10.62,0,0,1-2.67-.2,1.77,1.77,0,0,1-1-.94,9.65,9.65,0,0,1-.26-2.93v-19.1a9.18,9.18,0,0,1,.24-2.78,2.06,2.06,0,0,1,.91-1.06,4.12,4.12,0,0,1,2.09-.47h1.31v-.82h-16V103h1a4,4,0,0,1,2,.43,2.22,2.22,0,0,1,1,1,10,10,0,0,1,.24,2.87V127a9.18,9.18,0,0,1-.24,2.78,2,2,0,0,1-.89,1.06,4.13,4.13,0,0,1-2.1.47h-1v.82h26.61l.81-7.52C300.49,124.39,300,124.11,299.61,123.86Z" transform="translate(-46 -42.6)"/><path class="cls-6" d="M296.9,123.44c-.21.72,5.79,3.48,6.23,2.8.23-.35-1-1.66-2.19-2.34a5.35,5.35,0,0,0-2.57-.69C297.73,123.2,297,123.2,296.9,123.44Z" transform="translate(-46 -42.6)"/><path class="cls-3" d="M306.45,127.05l1.2-.67c-.2-.41-.39-.83-.61-1.22l-1.19.66C306.07,126.22,306.25,126.64,306.45,127.05Z" transform="translate(-46 -42.6)"/><path class="cls-7" d="M311.63,126.88c0-.24.07-.39.32-.37a4.63,4.63,0,0,0,.62.09c.39,0,.61.27.93.36a.79.79,0,0,1,.28.18,7.94,7.94,0,0,1,1.72,2,17.93,17.93,0,0,1,.93,2,.3.3,0,0,1-.23.42l-1.23.08a4,4,0,0,0-.77-.12,5.35,5.35,0,0,1-1.82-.3.79.79,0,0,1-.39-.3,5.63,5.63,0,0,1-.34-.89,2.87,2.87,0,0,1-.21-.8c0-.3.1-.61.12-.91C311.6,127.85,311.63,127.37,311.63,126.88Z" transform="translate(-46 -42.6)"/><path class="cls-5" d="M310.39,114.69a1,1,0,0,0,.67.86,2.46,2.46,0,0,0,1.75-.1.83.83,0,0,1,.93.21,16.13,16.13,0,0,0,1.5,1.11,5.13,5.13,0,0,0,.91.45,4,4,0,0,0,1.84.22,3.24,3.24,0,0,0,1-.27c.45-.21.87-.48,1.3-.72l0-.12a2.13,2.13,0,0,0-.59.14,2.55,2.55,0,0,1-1.3.21,1.84,1.84,0,0,1-1.5-.62c-.4-.4-.74-.86-1.15-1.26a5.7,5.7,0,0,0-1.94-1.35,3,3,0,0,0-1.94-.27,1.58,1.58,0,0,0-1.21.93C310.54,114.3,310.38,114.45,310.39,114.69Z" transform="translate(-46 -42.6)"/><path class="cls-7" d="M282.67,102.18v8.12h-.8a12.62,12.62,0,0,0-1.57-4,5.92,5.92,0,0,0-2.36-2,7.47,7.47,0,0,0-2.94-.4h-2.23V127a9.45,9.45,0,0,0,.25,2.87,2.3,2.3,0,0,0,1,1,4.07,4.07,0,0,0,2,.43h1v.82H261.34v-.82h1a4.13,4.13,0,0,0,2.1-.47,2.06,2.06,0,0,0,.91-1.06,9.18,9.18,0,0,0,.24-2.78V103.91h-2.16a6.32,6.32,0,0,0-4.4,1.28,8.5,8.5,0,0,0-2.43,5.11h-.84v-8.12Z" transform="translate(-46 -42.6)"/><path class="cls-7" d="M327.34,116.7c-1.9-.47-3-2.16-4.68-3.1a4.19,4.19,0,0,0-2.42-.47c-.56,0-.55,0-.75-.52a22.55,22.55,0,0,0-6.46-9.45c-.19-.16-.38-.32-.59-.47-.51-.36-1-.73-1.54-1a16.87,16.87,0,0,0-7.2-2.18c-1.79-.17-4.61-.51-5.95,1a8.22,8.22,0,0,0-1.05,1.43,8.25,8.25,0,0,1-3.89,3.47c-1.12.51-2.31.86-3.48,1.27-.41.15-.82.33-1.23.49v14.53c.93-.7,1.67-1.89,2.86-2.13a4.16,4.16,0,0,1,1.72.08,19.7,19.7,0,0,1,5.55,2.66,21.36,21.36,0,0,0,3,1.56,9.28,9.28,0,0,0,2.16.49c.64.08,1.2,0,1.67.54a4.58,4.58,0,0,1,1.17,2.44,9,9,0,0,1-.25,2.64,1.53,1.53,0,0,0,.1.5c0,.21.09.41.13.61a1.05,1.05,0,0,0,.82.8,7.82,7.82,0,0,0,2.82.55,5.64,5.64,0,0,0,.92-.11c.93-.19-1.58-4.77-1.73-5.3a2.75,2.75,0,0,1,.17-2.2,3.28,3.28,0,0,1,2-1.23c.14,0,.29-.05.42-.09a.46.46,0,0,1,.54.31,3.68,3.68,0,0,0,.85,1.37,3.84,3.84,0,0,0,1.92.63c.44.11.66-.17.8-.5a14.76,14.76,0,0,1,2.62-3.71,9.78,9.78,0,0,0,1.9-2.45,4.23,4.23,0,0,0,.1-1.5,7.55,7.55,0,0,0-.05-.83c0-.29-.12-.57-.18-.86a.24.24,0,0,1,.25-.33,9.56,9.56,0,0,1,1.31,0,1.92,1.92,0,0,1,.73.25c.9.49,1.73,1.06,2.63,1.55a4.3,4.3,0,0,0,2.95.4,6.54,6.54,0,0,0,3-1.52A5.74,5.74,0,0,1,327.34,116.7Z" transform="translate(-46 -42.6)"/><path class="cls-5" d="M309.55,115.23a1,1,0,0,0,.67.87A2.46,2.46,0,0,0,312,116a.87.87,0,0,1,.94.22c.47.39,1,.76,1.49,1.11a5.88,5.88,0,0,0,.91.44,3.76,3.76,0,0,0,1.85.22,3,3,0,0,0,1-.27,13.79,13.79,0,0,0,1.3-.72l0-.11a1.82,1.82,0,0,0-.59.14,2.65,2.65,0,0,1-1.3.21,1.88,1.88,0,0,1-1.5-.63c-.4-.4-.74-.85-1.14-1.25a6,6,0,0,0-1.95-1.36,3,3,0,0,0-1.94-.26,1.54,1.54,0,0,0-1.21.93C309.7,114.85,309.54,115,309.55,115.23Z" transform="translate(-46 -42.6)"/><path class="cls-7" d="M299.61,123.86a15.84,15.84,0,0,1-1.46,3.12,7.4,7.4,0,0,1-2.75,2.66,8.47,8.47,0,0,1-4,.84h-2.5a10.62,10.62,0,0,1-2.67-.2,1.77,1.77,0,0,1-1-.94,9.65,9.65,0,0,1-.26-2.93v-19.1a9.18,9.18,0,0,1,.24-2.78,2.06,2.06,0,0,1,.91-1.06,4.12,4.12,0,0,1,2.09-.47h1.31v-.82h-16V103h1a4,4,0,0,1,2,.43,2.22,2.22,0,0,1,1,1,10,10,0,0,1,.24,2.87V127a9.18,9.18,0,0,1-.24,2.78,2,2,0,0,1-.89,1.06,4.13,4.13,0,0,1-2.1.47h-1v.82h26.61l.81-7.52C300.49,124.39,300,124.11,299.61,123.86Z" transform="translate(-46 -42.6)"/><path class="cls-6" d="M296.9,123.44c-.21.72,5.79,3.48,6.23,2.8.23-.35-1-1.66-2.19-2.34a5.35,5.35,0,0,0-2.57-.69C297.73,123.2,297,123.2,296.9,123.44Z" transform="translate(-46 -42.6)"/><path class="cls-3" d="M286.54,155.87a39.2,39.2,0,1,1,34.37-58l1.69-1a41.16,41.16,0,1,0-1.68,42.35l-1.68-1A39.19,39.19,0,0,1,286.54,155.87Z" transform="translate(-46 -42.6)"/></svg>