<svg xmlns="http://www.w3.org/2000/svg" data-name="LIne Gradient" viewBox="0 0 64 64" id="price"><defs><linearGradient id="a" x1="10.551" x2="53.447" y1="31.994" y2="31.994" gradientUnits="userSpaceOnUse"><stop offset="0" stop-color="#ff81ff"></stop><stop offset="1" stop-color="#a93aff"></stop></linearGradient></defs><path fill="url(#a)" d="M50.22526,29.266a3.22478,3.22478,0,0,0,3.22142-3.22142V21.29644A3.22478,3.22478,0,0,0,50.22526,18.075a1.21534,1.21534,0,0,1-.86351-2.08444,3.22447,3.22447,0,0,0,0-4.55474l-3.3572-3.35719a3.22418,3.22418,0,0,0-4.55521,0,1.22072,1.22072,0,0,1-2.084-.86348A3.22478,3.22478,0,0,0,36.144,3.99375H31.39586a3.22437,3.22437,0,0,0-3.22093,3.22142,1.221,1.221,0,0,1-2.08445.86348,3.2242,3.2242,0,0,0-4.55522,0l-3.35719,3.35719a3.22567,3.22567,0,0,0,0,4.5557,1.214,1.214,0,0,1-.86343,2.0835,3.22477,3.22477,0,0,0-3.22147,3.2214v4.74813A3.22479,3.22479,0,0,0,17.31459,29.266a1.21408,1.21408,0,0,1,.86352,2.08346,3.22477,3.22477,0,0,0,0,4.55572L19.5419,37.269,10.81461,52.61007a1.94964,1.94964,0,0,0,2.81117,2.56112l5.40892-3.78014-.52306,6.50047a1.95419,1.95419,0,0,0,3.6356,1.1281l8.91615-15.706a12.47755,12.47755,0,0,0,1.38551.03366l8.896,15.1098a1.95128,1.95128,0,0,0,3.61649-1.15073l-.61387-6.21615,5.42309,3.66293a1.95165,1.95165,0,0,0,2.76715-2.59928l-7.271-12.357c.59991-.19815,3.57721-3.45036,4.09509-3.89164a3.22488,3.22488,0,0,0-.00006-4.55574A1.21469,1.21469,0,0,1,50.22526,29.266ZM20.52381,57.82608l.51476-6.395a1.94237,1.94237,0,0,0-3.04951-1.74942l-5.323,3.71958,8.34244-14.66562.52673.52672a3.22508,3.22508,0,0,0,4.55522,0,1.221,1.221,0,0,1,2.08445.86348,3.20259,3.20259,0,0,0,1.05352,2.3671Zm24.94258-8.39445a1.95828,1.95828,0,0,0-3.028,1.77682l.50887,6.02765L34.77094,43.34726h1.373a3.22478,3.22478,0,0,0,3.22142-3.22142,1.21463,1.21463,0,0,1,2.084-.86352,3.1967,3.1967,0,0,0,1.70431.88733l7.538,12.81206Zm2.481-16.66779a1.22242,1.22242,0,0,1,0,1.72695l-3.3572,3.3572a1.22271,1.22271,0,0,1-1.72646,0A3.221,3.221,0,0,0,37.365,40.12584a1.22268,1.22268,0,0,1-1.221,1.221H31.39586a1.22226,1.22226,0,0,1-1.22049-1.221,3.2356,3.2356,0,0,0-3.242-3.22922,3.17645,3.17645,0,0,0-2.2573.95137,1.22182,1.22182,0,0,1-1.72646,0l-3.35719-3.3572a1.2224,1.2224,0,0,1,0-1.72695,3.22109,3.22109,0,0,0-2.27786-5.49829,1.22236,1.22236,0,0,1-1.221-1.221V21.29644a1.22236,1.22236,0,0,1,1.221-1.221,3.22138,3.22138,0,0,0,2.27786-5.49927,1.2221,1.2221,0,0,1,0-1.726L22.94964,9.493a1.22272,1.22272,0,0,1,1.72646,0,3.22125,3.22125,0,0,0,5.49927-2.27785,1.22226,1.22226,0,0,1,1.22049-1.221H36.144a1.22268,1.22268,0,0,1,1.221,1.221A3.221,3.221,0,0,0,42.86375,9.493a1.22007,1.22007,0,0,1,1.72646,0l3.3572,3.3572a1.22331,1.22331,0,0,1,0,1.727,3.22109,3.22109,0,0,0,2.27785,5.49829,1.22237,1.22237,0,0,1,1.221,1.221v4.74813a1.22237,1.22237,0,0,1-1.221,1.221,3.22109,3.22109,0,0,0-2.27785,5.49829ZM33.76993,13.62871A10.0533,10.0533,0,0,0,23.72813,23.67c.5517,13.32243,19.53392,13.31855,20.08361-.00008A10.05331,10.05331,0,0,0,33.76993,13.62871Zm0,18.08314A8.05045,8.05045,0,0,1,25.72858,23.67c.40422-10.65259,15.68009-10.6497,16.0827.0001A8.05044,8.05044,0,0,1,33.76993,31.71185Zm.59388-3.05781v1.60827a1.00023,1.00023,0,0,1-2.00045,0V28.68969h-.60261a1.00041,1.00041,0,0,1-.00006-2.00044h2.25045a.7679.7679,0,0,0,.00005-1.53549l-.48246,0a2.88933,2.88933,0,0,1-2.76826-3.41187,2.76542,2.76542,0,0,1,1.60289-2.50208V17.44311a1.00041,1.00041,0,0,1,2.00044-.00007v1.53062h1.25467a1.00022,1.00022,0,1,1,0,2.00044H33.5287c-.81725.03671-.79456.7958-.76778,1.4114.02475.71721.667.81731,1.25027.76779A2.76322,2.76322,0,0,1,34.36381,28.654Z"></path></svg>