<svg id="Layer_1" data-name="Layer 1" xmlns="http://www.w3.org/2000/svg" viewBox="0 0 162 187.07"><defs><style>.cls-1{fill:#1b9cd8;}.cls-2{fill:#4bc5dd;}</style></defs><polygon class="cls-1" points="142.68 61.41 82.72 96.64 19.32 61.91 79.28 26.69 142.68 61.41"/><polygon class="cls-2" points="82.72 105.37 39.55 81.73 19.32 93.61 82.72 128.33 142.68 93.11 122.45 82.03 82.72 105.37"/><polygon class="cls-1" points="82.72 137.41 39.55 113.77 19.32 125.65 82.72 160.37 142.68 125.15 122.45 114.08 82.72 137.41"/><polygon class="cls-2" points="0 51 0 136.57 6.37 132.87 6.37 54.7 0 51"/><polygon class="cls-1" points="155.64 53.78 155.64 133.79 162 137.49 162 50.08 155.64 53.78"/><polygon class="cls-1" points="151.39 139.07 81 179.71 9.81 138.62 3.47 142.31 81 187.07 157.74 142.76 151.39 139.07"/><polygon class="cls-2" points="9.38 48.7 81 7.35 151.83 48.24 158.17 44.55 81 0 3.04 45.01 9.38 48.7"/></svg>